<?xml version="1.0" encoding="UTF-8"?>
<svg width="42px" height="40px" viewBox="0 0 42 40" version="1.1" xmlns="http://www.w3.org/2000/svg" xmlns:xlink="http://www.w3.org/1999/xlink">
    <!-- Generator: Sketch 52.2 (67145) - http://www.bohemiancoding.com/sketch -->
    <title>Logo 2</title>
    <desc>Created with Sketch.</desc>
    <defs>
        <linearGradient x1="19.2884414%" y1="-12.3197089%" x2="116.009583%" y2="122.131086%" id="linearGradient-1">
            <stop stop-color="#FFB200" offset="0%"></stop>
            <stop stop-color="#FF578C" offset="100%"></stop>
        </linearGradient>
    </defs>
    <g id="Page-1" stroke="none" stroke-width="1" fill="none" fill-rule="evenodd">
        <g id="Mobile" transform="translate(-21.000000, -26.000000)" fill="url(#linearGradient-1)" fill-rule="nonzero">
            <g id="Logo-2" transform="translate(21.000000, 26.000000)">
                <path d="M28.6612384,20.2898551 L31.1101278,26.7893174 C31.2540656,27.137668 31.3268554,27.5561103 31.3985507,27.9761336 C31.3985507,28.3255383 31.3274028,28.7434535 31.1101278,29.0933852 C30.8828637,29.3826991 30.615907,29.6410014 30.3165541,29.8612321 C29.9542467,30.0709803 29.5935813,30.140018 29.1606732,30.140018 C28.0770347,30.2106367 27.0661861,29.5118275 26.7777631,28.5342324 L25.76582,25.5313554 L16.4509077,25.5313554 L15.4400591,28.4646676 C15.1516362,29.5118275 14.1407876,30.2106367 13.0571491,30.140018 C12.4069661,30.140018 11.8295729,29.9307968 11.3238749,29.5118275 C10.8915141,29.0933852 10.6014493,28.5342324 10.6014493,27.9761336 C10.6736918,27.4870725 10.7464817,27.0681033 10.8915141,26.7893174 L13.3946399,20.2898551 L12.2327343,20.2898551 C11.6624481,20.2898551 11.1956522,19.7681159 11.1956522,19.1304348 C11.1956522,18.4927536 11.6624481,17.9710145 12.2327343,17.9710145 L14.2876907,17.9710145 L14.5109533,17.3913044 L12.2327343,17.3913044 C11.6624481,17.3913044 11.1956522,16.8695652 11.1956522,16.2318841 C11.1956522,15.5942029 11.6624481,15.0724637 12.2327343,15.0724637 L15.4040041,15.0724637 L17.5345462,9.54042936 C17.8229691,8.77310948 18.3292143,8.14386499 18.9060603,7.65533095 C19.4840008,7.1662699 20.2786689,6.95652174 21.0727898,6.95652174 C21.8663635,6.95652174 22.661579,7.1662699 23.2384249,7.65533095 C23.8891552,8.14386499 24.3226106,8.8426742 24.6110335,9.54042936 L26.6954121,15.0724637 L30.3614686,15.0724637 C30.9317548,15.0724637 31.3985507,15.5942029 31.3985507,16.2318841 C31.3985507,16.8695652 30.9317548,17.3913044 30.3614686,17.3913044 L27.5691127,17.3913044 L27.7875379,17.9710145 L30.3614686,17.9710145 C30.9317548,17.9710145 31.3985507,18.4927536 31.3985507,19.1304348 C31.3985507,19.7681159 30.9317548,20.2898551 30.3614686,20.2898551 L28.6612384,20.2898551 Z M41.5,20 C41.5,31.0457895 32.3213948,40 21,40 C9.67806579,40 0.5,31.0457895 0.5,20 C0.5,8.95421053 9.67806579,0 21,0 C32.3213948,0 41.5,8.95421053 41.5,20 Z M39.1231884,20 C39.1231884,10.2353197 31.0087973,2.31884058 21,2.31884058 C10.9906696,2.31884058 2.8768116,10.2347996 2.8768116,20 C2.8768116,29.7652004 10.9906696,37.6811595 21,37.6811595 C31.0087973,37.6811595 39.1231884,29.7652004 39.1231884,20 Z M20.9624224,11.5942029 L17.731884,20.8695652 L24.268116,20.8695652 L20.9624224,11.5942029 Z" id="Logo"></path>
            </g>
        </g>
    </g>
</svg>